<?xml version="1.0" encoding="UTF-8"?>
<svg version="1.1" xmlns="http://www.w3.org/2000/svg" width="1588" height="1310">
<path d="M0 0 C524.04 0 1048.08 0 1588 0 C1588 432.3 1588 864.6 1588 1310 C1063.96 1310 539.92 1310 0 1310 C0 877.7 0 445.4 0 0 Z " fill="#FEFEFE" transform="translate(0,0)"/>
<path d="M0 0 C4.89121802 3.05281783 8.36011383 7.24177722 11.84765625 11.77734375 C12.32332031 11.01550781 12.32332031 11.01550781 12.80859375 10.23828125 C17.35478402 3.53202267 23.14200165 -0.65410472 30.84765625 -3.22265625 C40.61777964 -4.29293581 48.9482056 -2.41073473 57.015625 3.31640625 C61.80905693 7.62947294 63.88331669 12.73647155 65.84765625 18.77734375 C66.34265625 20.26234375 66.34265625 20.26234375 66.84765625 21.77734375 C67.67434438 33.35097757 63.66799473 44.87488847 56.359375 53.82421875 C51.8969928 58.88069345 47.15464455 63.60520361 41.99609375 67.953125 C35.02676837 73.87071583 28.36052214 80.17560727 21.84765625 86.58984375 C20.98140625 87.44191406 20.11515625 88.29398438 19.22265625 89.171875 C16.72229837 91.9148663 14.82301936 94.64511289 12.84765625 97.77734375 C8.98231714 96.25726657 7.17017114 93.96551878 4.66015625 90.71484375 C-1.08798988 83.52262828 -7.2007978 77.26770646 -14.40234375 71.52734375 C-26.92366804 61.45392955 -40.40352121 49.38979303 -43.15234375 32.77734375 C-43.94701684 23.47966859 -43.312917 16.64608955 -38.15234375 8.77734375 C-37.59546875 7.86984375 -37.03859375 6.96234375 -36.46484375 6.02734375 C-26.00447896 -4.15030848 -13.1751512 -5.98870509 0 0 Z " fill="#030303" transform="translate(385.15234375,975.22265625)"/>
<path d="M0 0 C4.96555511 2.84936216 9.20120823 6.12905882 11.828125 11.2734375 C12.075625 12.294375 12.075625 12.294375 12.328125 13.3359375 C12.988125 13.3359375 13.648125 13.3359375 14.328125 13.3359375 C14.57304688 12.59601562 14.81796875 11.85609375 15.0703125 11.09375 C17.68013809 5.37158583 23.46900045 0.8238841 29.203125 -1.6640625 C36.97519784 -4.02344175 44.63130822 -3.31113438 51.9765625 0.01171875 C58.74477128 3.82305227 64.08264068 9.23208769 67.328125 16.3359375 C69.58836841 25.11777497 69.02925511 34.08770467 65.328125 42.3359375 C65.02261719 43.03976562 64.71710938 43.74359375 64.40234375 44.46875 C57.75182716 57.96325276 44.25351637 68.35705201 33.078125 78.0234375 C25.9987134 84.19410476 19.91953032 90.78754032 14.328125 98.3359375 C10.74377499 97.14115416 10.16284275 96.07725847 7.953125 93.0859375 C0.492083 83.49120268 -8.46078394 75.22379347 -17.671875 67.3359375 C-29.78107496 56.87059399 -40.29655908 45.65275075 -41.91015625 28.85546875 C-42.18425732 18.85799289 -39.24746713 12.34426623 -32.46875 5.05859375 C-23.25821681 -3.77150437 -11.51784129 -5.23876007 0 0 Z " fill="#030303" transform="translate(1177.671875,974.6640625)"/>
<path d="M0 0 C5.22909691 3.37424744 10.53346922 6.99645897 12.0703125 13.3359375 C12.7303125 13.3359375 13.3903125 13.3359375 14.0703125 13.3359375 C14.31523438 12.59601562 14.56015625 11.85609375 14.8125 11.09375 C17.41094637 5.39653529 23.18458195 0.84459246 28.8828125 -1.6640625 C36.65079151 -3.98676513 43.95287432 -3.57539804 51.3203125 -0.2265625 C58.48001759 3.77086131 64.09311497 9.00802826 67.0703125 16.7734375 C70.05735683 27.83513715 67.28988621 38.11374792 62.16796875 48.04296875 C56.17979803 57.44339318 47.57993491 65.23891241 39.0703125 72.3359375 C29.94349319 80.34427405 21.02990525 88.31958245 14.0703125 98.3359375 C10.46305484 96.86925032 8.8068337 95.00186785 6.5078125 91.8984375 C-0.33722819 83.07764019 -8.46915642 75.57619968 -16.9296875 68.3359375 C-28.7562611 58.06253733 -40.8997432 46.98738105 -42.14453125 30.48828125 C-42.4465035 20.93387911 -41.05165931 14.49419171 -34.8671875 7.0859375 C-25.38914945 -2.71261392 -12.71036811 -6.61314356 0 0 Z " fill="#030303" transform="translate(780.9296875,974.6640625)"/>
<path d="M0 0 C6.27247442 2.95915983 10.60075509 6.20065666 14.55078125 11.90625 C14.55078125 12.56625 14.55078125 13.22625 14.55078125 13.90625 C15.21078125 13.90625 15.87078125 13.90625 16.55078125 13.90625 C16.79828125 13.349375 17.04578125 12.7925 17.30078125 12.21875 C21.15511483 5.08823288 26.55427091 2.40450517 33.55078125 -1.09375 C44.584783 -1.9984195 53.18916974 -0.86194712 61.92578125 6.15625 C67.24727204 11.1552262 70.12293962 17.2490887 70.7890625 24.5 C71.16880016 39.36972748 65.10794813 50.23501266 55.3828125 61.01953125 C52.99824378 63.47528112 50.47069277 65.70268748 47.86328125 67.91796875 C44.97707627 70.39951999 42.16860729 72.95902019 39.36328125 75.53125 C38.86417236 75.98669189 38.36506348 76.44213379 37.85083008 76.91137695 C34.66728452 79.8312595 31.59235598 82.83945492 28.55078125 85.90625 C27.94234375 86.49148438 27.33390625 87.07671875 26.70703125 87.6796875 C23.72077308 90.56734281 21.08951799 93.41052822 18.73828125 96.84375 C18.01640625 97.854375 17.29453125 98.865 16.55078125 99.90625 C15.89078125 99.90625 15.23078125 99.90625 14.55078125 99.90625 C13.140625 98.2890625 13.140625 98.2890625 11.48828125 96.03125 C5.88475034 88.63737935 -0.13557813 81.80861009 -7.22265625 75.80859375 C-37.61944821 49.83800132 -37.61944821 49.83800132 -39.44921875 31.90625 C-40.21859614 22.03570106 -37.78753011 14.59977686 -31.4921875 6.921875 C-28.24781323 3.72092447 -24.56540672 1.78410358 -20.44921875 -0.09375 C-14.72718658 -2.95476608 -5.96445125 -1.89133222 0 0 Z " fill="#030303" transform="translate(1175.44921875,483.09375)"/>
<path d="M0 0 C4.95008824 2.81239831 8.20326799 5.76583155 11.4375 10.4375 C11.4375 11.0975 11.4375 11.7575 11.4375 12.4375 C12.0975 12.4375 12.7575 12.4375 13.4375 12.4375 C13.685 11.4165625 13.685 11.4165625 13.9375 10.375 C16.73702464 4.89259758 22.45101522 0.00534912 28.26953125 -2.125 C39.19130115 -4.32903284 48.49713086 -2.44658751 57.6875 3.5625 C64.73087111 10.92602434 67.84522962 18.23277862 67.7109375 28.3046875 C65.86740164 49.42634122 48.63501471 63.58509277 33.4375 76.4375 C26.31496685 82.48150864 20.52891574 88.53409296 15.21484375 96.1640625 C14.62832031 96.91429687 14.04179688 97.66453125 13.4375 98.4375 C12.7775 98.4375 12.1175 98.4375 11.4375 98.4375 C10.12596237 96.96940495 8.88755925 95.43554216 7.6875 93.875 C6.97078125 92.95976563 6.2540625 92.04453125 5.515625 91.1015625 C4.82984375 90.22242188 4.1440625 89.34328125 3.4375 88.4375 C-0.10079128 84.00587775 -3.82646094 80.202427 -8.1484375 76.53125 C-11.81982379 73.34700558 -15.35768912 70.02015433 -18.90649414 66.70043945 C-21.29732206 64.47615133 -23.67540877 62.34845679 -26.2421875 60.32421875 C-35.78769871 52.56246468 -41.54072379 40.67228749 -42.87109375 28.6484375 C-43.28015977 19.64898506 -40.81826217 12.37775538 -34.88671875 5.4921875 C-33.19266211 3.94222304 -31.48774877 2.68519341 -29.5625 1.4375 C-29.00304687 1.02757812 -28.44359375 0.61765625 -27.8671875 0.1953125 C-19.58125909 -5.00581139 -8.54321848 -3.96839414 0 0 Z " fill="#030303" transform="translate(781.5625,484.5625)"/>
<path d="M0 0 C6.49171521 2.94709692 10.73336753 7.64373055 15.06640625 13.19921875 C15.74703125 12.49796875 16.42765625 11.79671875 17.12890625 11.07421875 C18.10452019 10.11226887 19.084018 9.15424936 20.06640625 8.19921875 C20.58589844 7.68359375 21.10539062 7.16796875 21.640625 6.63671875 C28.69407209 0.06007811 36.24667984 -1.52972834 45.78515625 -1.2734375 C54.15784125 -0.06737216 60.32882854 4.7141255 65.62890625 11.07421875 C69.4655478 16.74577582 70.62259646 21.10486525 70.56640625 27.82421875 C70.56068604 28.61820068 70.55496582 29.41218262 70.54907227 30.23022461 C70.01107693 48.11449379 57.23326588 59.64487837 45.06640625 71.19921875 C42.44643444 73.58977097 39.76453556 75.89771966 37.06640625 78.19921875 C30.24255171 84.08466579 24.35892389 89.95436997 18.94140625 97.14453125 C18.32265625 97.82257813 17.70390625 98.500625 17.06640625 99.19921875 C16.07640625 99.19921875 15.08640625 99.19921875 14.06640625 99.19921875 C12.19140625 97.1796875 12.19140625 97.1796875 10.06640625 94.38671875 C3.68804243 86.34667763 -3.34008237 79.17497244 -11.37109375 72.76171875 C-23.44798664 63.08982316 -35.48925159 51.8729106 -38.93359375 36.19921875 C-39.74938517 27.72497722 -40.29382462 19.31279616 -34.93359375 12.19921875 C-34.50949219 11.58820312 -34.08539062 10.9771875 -33.6484375 10.34765625 C-29.91417622 5.45879051 -25.41118435 2.8503726 -19.93359375 0.19921875 C-14.55786658 -2.48864484 -5.66624989 -1.54671269 0 0 Z " fill="#030303" transform="translate(1373.93359375,727.80078125)"/>
<path d="M0 0 C4.38204498 2.97294873 7.59925058 5.70827997 9 11 C9.66 10.319375 10.32 9.63875 11 8.9375 C18.44063824 1.55991802 24.33274518 -4.02608062 35.3125 -4.4375 C43.92929778 -4.20996114 51.10310682 -1.68789366 57.46484375 4.22265625 C64.13046598 11.93985247 65.37605482 19.47924879 65.2734375 29.40234375 C63.99578344 46.21262072 50.06085367 58.91866797 38.05859375 69.23046875 C23.95133721 81.30160514 23.95133721 81.30160514 12.19140625 95.56640625 C11.79824219 96.03949219 11.40507812 96.51257813 11 97 C10.34 97 9.68 97 9 97 C7.51953125 95.3125 7.51953125 95.3125 5.8125 93 C0.84683496 86.45435062 -4.21713523 80.50996578 -10.48828125 75.1875 C-13.96214429 72.16205163 -17.3219775 69.02000591 -20.6875 65.875 C-21.32945312 65.27671387 -21.97140625 64.67842773 -22.6328125 64.06201172 C-43.46319335 44.57954272 -43.46319335 44.57954272 -44.37890625 30.421875 C-44.43403085 28.74000228 -44.4742512 27.05757884 -44.5 25.375 C-44.51861084 24.57529785 -44.53722168 23.7755957 -44.55639648 22.95166016 C-44.47438276 15.23600042 -41.79839646 9.22439563 -36.3125 3.75 C-26.01950437 -5.86184151 -12.27829716 -7.00078347 0 0 Z " fill="#030303" transform="translate(188,731)"/>
<path d="M0 0 C3.15662617 2.4175748 5.5711548 5.3564279 7.96875 8.5078125 C8.649375 7.8065625 9.33 7.1053125 10.03125 6.3828125 C11.00551393 5.41949535 11.98515569 4.46160093 12.96875 3.5078125 C13.49984375 2.9921875 14.0309375 2.4765625 14.578125 1.9453125 C21.84430011 -4.7209032 28.58160694 -6.20735537 38.4296875 -5.96484375 C46.90234499 -4.83328574 53.41121285 -0.11038256 58.59765625 6.53125 C64.27232954 14.71183315 64.09866634 23.6529867 62.5 33.3515625 C58.0316028 50.1612472 43.70852332 61.6480834 30.96875 72.5078125 C22.80362682 79.62231843 15.68435453 86.99444658 8.96875 95.5078125 C5.84967801 92.43959494 2.85272581 89.30727443 -0.07714844 86.05517578 C-7.95425136 77.33428649 -16.4585187 69.44327675 -25.34375 61.7578125 C-32.68732349 55.34184829 -38.49404274 49.22886197 -43.03125 40.5078125 C-43.37285156 39.90839844 -43.71445312 39.30898438 -44.06640625 38.69140625 C-47.69294556 31.15157802 -47.37202878 20.39917211 -45.1875 12.4296875 C-41.75310509 4.86473654 -35.4197961 -0.79791445 -28.03125 -4.4921875 C-18.15145133 -7.60410646 -8.4679147 -5.43900675 0 0 Z " fill="#030303" transform="translate(984.03125,732.4921875)"/>
<path d="M0 0 C4.48203294 2.79250417 7.62569457 6.49839861 10.74609375 10.7109375 C11.42671875 10.0096875 12.10734375 9.3084375 12.80859375 8.5859375 C19.97119708 1.48386322 25.6235741 -3.34732966 36.05859375 -3.7265625 C44.74365659 -3.497221 51.81149599 -0.94948666 58.2109375 4.99609375 C65.43276736 13.06322685 66.52922614 21.1510383 65.96386719 31.6171875 C64.2278582 48.30778512 49.90727604 60.48313983 37.97265625 70.77734375 C30.43158917 77.32616516 23.24749347 83.97353289 16.68359375 91.51953125 C14.78088735 93.67158425 12.79730908 95.70092962 10.74609375 97.7109375 C9.39117491 96.21161688 8.03720697 94.71143696 6.68359375 93.2109375 C5.85601563 92.29441406 5.0284375 91.37789062 4.17578125 90.43359375 C2.18213292 88.19955374 0.24006887 85.93571067 -1.69140625 83.6484375 C-5.82360209 78.90688559 -10.52969596 74.84815759 -15.25390625 70.7109375 C-18.61292765 67.73830659 -21.94805518 64.74261911 -25.25390625 61.7109375 C-26.05183594 60.98003906 -26.84976563 60.24914062 -27.671875 59.49609375 C-33.00209229 54.4158699 -36.89223479 49.26188701 -40.25390625 42.7109375 C-40.59421875 42.1128125 -40.93453125 41.5146875 -41.28515625 40.8984375 C-44.91984583 33.35982207 -44.56676114 22.65158464 -42.4453125 14.66796875 C-39.03738039 7.06203031 -32.98325581 2.00592185 -26.00390625 -2.2890625 C-16.89474264 -4.7181728 -8.54978637 -3.9285871 0 0 Z " fill="#020202" transform="translate(584.25390625,730.2890625)"/>
<path d="M0 0 C2.6442836 1.90889112 4.83848933 3.97271111 6.98046875 6.4296875 C7.74359375 7.1928125 8.50671875 7.9559375 9.29296875 8.7421875 C9.84984375 9.2990625 10.40671875 9.8559375 10.98046875 10.4296875 C11.61662109 9.65044922 11.61662109 9.65044922 12.265625 8.85546875 C16.76960077 3.50019206 21.17055072 -1.30033982 27.98046875 -3.5703125 C39.70481012 -4.43786419 47.48450861 -4.03282443 56.73046875 3.7421875 C64.17251916 12.63130326 65.7736202 19.83342439 65.19384766 31.22607422 C63.35811394 50.18412063 45.07606152 63.62474577 31.66796875 75.1796875 C23.91874368 81.8844518 17.02014239 89.15013489 10.98046875 97.4296875 C7.44417859 93.94427921 4.0630881 90.36310888 0.73046875 86.6796875 C-5.63006982 79.71455534 -11.97671035 72.97999778 -19.39453125 67.1171875 C-27.76669096 60.39123897 -36.25429581 52.18132965 -41.01953125 42.4296875 C-41.33535156 41.79417969 -41.65117188 41.15867187 -41.9765625 40.50390625 C-45.34683684 32.33214517 -45.75432487 20.71075915 -42.51953125 12.4296875 C-39.05391447 6.04758336 -33.24914638 0.0140831 -26.54296875 -2.94140625 C-17.60039232 -5.17012886 -8.00013589 -4.74379917 0 0 Z " fill="#020202" transform="translate(982.01953125,240.5703125)"/>
<path d="M0 0 C3.67836421 2.158379 6.55509876 4.58975572 9.375 7.8125 C10.303125 8.740625 11.23125 9.66875 12.1875 10.625 C12.909375 11.346875 13.63125 12.06875 14.375 12.8125 C14.6225 11.7915625 14.6225 11.7915625 14.875 10.75 C17.6237964 5.36694039 22.55457144 1.34245844 28.0625 -1.125 C36.48107589 -3.77131069 45.37095971 -3.00309297 53.296875 0.69140625 C60.08870034 4.35541729 64.92741512 10.46974536 67.375 17.8125 C68.02981274 27.77424141 68.05068983 36.74225358 63.375 45.8125 C63.00890625 46.53050781 62.6428125 47.24851562 62.265625 47.98828125 C56.27628287 58.0999175 46.28306628 66.48883224 37.421875 74.0625 C28.4863396 81.70204171 20.66304405 89.57345301 13.375 98.8125 C10.21401025 95.69556586 7.18152535 92.52029878 4.25 89.1875 C-3.94500631 80.03800044 -12.69698742 71.63334601 -22.09375 63.73828125 C-32.15045599 55.05982865 -40.85749773 44.23039965 -41.86328125 30.578125 C-42.09179588 19.75374768 -40.17415858 12.54789935 -32.6484375 4.609375 C-23.60442866 -3.4219842 -11.05184219 -5.19601536 0 0 Z " fill="#030303" transform="translate(383.625,484.1875)"/>
<path d="M0 0 C5.97635852 3.1737198 10.27323213 6.9096652 14.390625 12.26953125 C14.97070312 11.58246094 15.55078125 10.89539063 16.1484375 10.1875 C16.92960937 9.28644531 17.71078125 8.38539063 18.515625 7.45703125 C19.66417969 6.11705078 19.66417969 6.11705078 20.8359375 4.75 C25.10925073 0.60083502 29.51953999 -1.18684977 35.390625 -1.73046875 C36.256875 -1.818125 37.123125 -1.90578125 38.015625 -1.99609375 C46.35045157 -2.47360986 52.56015015 -0.56009743 59.390625 4.26953125 C65.34982135 10.19752762 68.59270712 16.08381091 68.82250977 24.49975586 C68.86275678 41.21626557 62.36115024 51.16980967 50.828125 63.01953125 C47.83255655 65.91891172 44.71166503 68.66446859 41.55859375 71.390625 C31.99774034 79.67669796 22.69166355 87.87108241 15.390625 98.26953125 C11.63569623 96.74542184 9.58276776 94.4968436 6.953125 91.45703125 C3.86187553 87.93853592 0.7455343 84.54056782 -2.609375 81.26953125 C-3.27582031 80.59277344 -3.94226562 79.91601562 -4.62890625 79.21875 C-9.97022971 73.80463167 -15.43201798 68.60037539 -21.3828125 63.85546875 C-30.66526444 56.3371027 -37.33665742 46.75856512 -40.609375 35.26953125 C-41.69149668 24.37996989 -40.87867728 16.22227296 -34.10546875 7.28515625 C-24.97140569 -3.01542571 -12.34383795 -5.49261972 0 0 Z " fill="#030303" transform="translate(1375.609375,238.73046875)"/>
<path d="M0 0 C5.16125219 3.02676823 8.85316041 7.38680343 12.5 12.0625 C12.974375 11.381875 13.44875 10.70125 13.9375 10 C19.30574058 3.84616324 25.58570663 -1.45449517 33.91796875 -2.2734375 C44.19304228 -2.37991495 52.05439323 -1.43921833 59.875 5.75 C66.87713911 13.50338075 68.32960634 20.9196945 67.8828125 31.1875 C66.43946932 45.79766768 55.59716088 57.91146976 44.8125 67.07421875 C41.92629502 69.55576999 39.11782604 72.11527019 36.3125 74.6875 C35.81339111 75.14294189 35.31428223 75.59838379 34.80004883 76.06762695 C31.61650327 78.9875095 28.54157473 81.99570492 25.5 85.0625 C24.8915625 85.64773438 24.283125 86.23296875 23.65625 86.8359375 C19.72780402 90.63467064 16.5530412 94.5291964 13.5 99.0625 C10.11408069 95.73061131 6.90404901 92.30081632 3.75 88.75 C-5.32938749 78.6986802 -15.41002342 69.51068212 -25.68212891 60.69580078 C-34.3029488 52.95026155 -40.6926428 42.84883913 -41.90625 31.14453125 C-42.24427701 21.87200757 -41.67546135 14.51086256 -35.5 7.0625 C-25.98054914 -2.13963583 -12.4752631 -5.62647947 0 0 Z " fill="#030303" transform="translate(582.5,238.9375)"/>
<path d="M0 0 C4.68187108 2.76475974 8.42202082 6.47678124 11.4375 11 C11.4375 11.66 11.4375 12.32 11.4375 13 C12.0975 13 12.7575 13 13.4375 13 C13.664375 12.46375 13.89125 11.9275 14.125 11.375 C17.97894638 4.40119226 22.75939076 0.30245715 30.4375 -2 C39.79910715 -3.17612896 48.67183452 -2.9874809 56.4375 3 C62.50618842 8.56903654 66.91975525 14.0108233 67.78125 22.3125 C68.26745911 34.17600224 65.43704097 44.39377376 57.71875 53.55078125 C50.03371288 61.80166871 42.05189834 69.71899122 33.4375 77 C26.96948137 82.49411075 21.51932065 88.08552167 16.4453125 94.91015625 C15.78273437 95.59980469 15.12015625 96.28945313 14.4375 97 C13.1175 97 11.7975 97 10.4375 97 C8.4296875 94.9453125 8.4296875 94.9453125 6.3125 92.125 C-0.45897384 83.47441437 -8.24593428 76.13523536 -16.5625 69 C-27.681663 59.35982824 -36.79924816 50.28975551 -41.5625 36 C-42.96505749 16.10372011 -42.96505749 16.10372011 -36.5625 8 C-27.24144468 -2.21806065 -12.90315663 -5.85787479 0 0 Z " fill="#030303" transform="translate(185.5625,239)"/>
<path d="M0 0 C4.28923652 3.03754482 7.12443317 6.12205492 9.7265625 10.67578125 C10.2834375 10.11890625 10.8403125 9.56203125 11.4140625 8.98828125 C12.1771875 8.22515625 12.9403125 7.46203125 13.7265625 6.67578125 C14.4690625 5.87140625 15.2115625 5.06703125 15.9765625 4.23828125 C20.42126702 0.09662476 25.48849815 -3.87864272 31.7265625 -4.32421875 C32.44457031 -4.38609375 33.16257812 -4.44796875 33.90234375 -4.51171875 C42.03046631 -4.91622874 48.21862061 -2.61787306 54.9765625 1.80078125 C62.73609841 9.91302334 65.21774202 17.54535951 64.98828125 28.4375 C64.2830425 43.8598675 54.37713395 54.57787552 43.6015625 64.55078125 C39.36963244 68.39640339 35.08057472 72.1828544 30.6875 75.84375 C28.55888538 77.75789238 28.55888538 77.75789238 26.328125 80.5390625 C22.65643013 84.86374701 19.58107779 88.19448583 13.93359375 89.66015625 C8.95677923 89.91562945 4.67858665 90.05689816 0.49609375 87.09765625 C-1.26603196 85.04923551 -2.74297901 82.90046833 -4.2734375 80.67578125 C-5.46263522 79.52867903 -6.69415575 78.42408223 -7.9609375 77.36328125 C-12.04457017 73.89934381 -15.9847261 70.29183979 -19.91186523 66.65307617 C-22.54513981 64.22303669 -25.21186703 61.89544215 -28.0234375 59.67578125 C-35.72276664 53.16241234 -42.73645809 42.73730387 -44.2734375 32.67578125 C-45.37627025 15.51859632 -45.37627025 15.51859632 -40.2734375 8.67578125 C-39.5309375 7.62390625 -38.7884375 6.57203125 -38.0234375 5.48828125 C-27.64160581 -5.12950116 -12.98335637 -7.56247046 0 0 Z " fill="#030303" transform="translate(982.2734375,1221.32421875)"/>
<path d="M0 0 C4.43868392 3.00022154 7.82837026 6.68658355 11 11 C11.67095703 10.20335937 11.67095703 10.20335937 12.35546875 9.390625 C18.40301626 2.32440744 23.84159774 -3.01304421 33.3515625 -4.32421875 C41.8706748 -4.71636836 49.69134215 -2.18926179 56.375 3.125 C63.26648406 9.88886399 65.4670317 16.50480072 65.5625 26 C65.38446353 36.99206201 62.11002937 44.66029814 55 53 C54.30519531 53.81597656 53.61039063 54.63195313 52.89453125 55.47265625 C48.91773856 60.01071745 44.83439573 64.1974126 40.23046875 68.09375 C37.43366266 70.4840151 34.71569901 72.95626196 32 75.4375 C31.47728516 75.90639648 30.95457031 76.37529297 30.41601562 76.85839844 C28.09554165 78.96141919 25.95762059 81.05213405 23.98046875 83.484375 C21.03831169 87.09957453 19.10082069 88.73644048 14.4921875 89.83984375 C9.02667228 90.23644674 4.81501935 90.3586264 0.3125 86.98828125 C-1.95112273 84.42205618 -3.96467128 81.74891011 -6 79 C-7.85986568 77.15736357 -7.85986568 77.15736357 -9.8125 75.5625 C-14.83703316 71.30712996 -19.69095805 66.87916796 -24.50390625 62.38769531 C-25.91779273 61.076251 -27.34903722 59.78359284 -28.78125 58.4921875 C-37.0070007 50.78674031 -43.16515321 40.90907482 -44.37109375 29.484375 C-44.5586671 18.93613224 -42.88356502 11.94824499 -35.6875 4.125 C-25.2502691 -5.55855777 -12.47362864 -6.21768299 0 0 Z " fill="#030303" transform="translate(1379,1221)"/>
<path d="M0 0 C3.78567645 3.04500063 6.80108602 6.56559894 9.875 10.3125 C10.26429688 9.80460937 10.65359375 9.29671875 11.0546875 8.7734375 C16.18259062 2.46398988 22.0972321 -2.0949107 29.875 -4.6875 C39.26633091 -5.64069665 45.91286149 -3.263995 54.125 1 C59.97765332 5.92154938 64.38819193 12.96709745 65.24609375 20.625 C65.49479952 34.43548487 61.48256358 44.97623855 52.11376953 55.24243164 C50.26936687 57.14926859 48.39515114 59.01863357 46.5 60.875 C45.83589111 61.53193848 45.17178223 62.18887695 44.48754883 62.86572266 C40.0896339 67.1908512 35.58333308 71.32778369 30.875 75.3125 C29.09769856 76.86763876 27.32717832 78.43055189 25.5625 80 C24.74136719 80.72574219 23.92023438 81.45148438 23.07421875 82.19921875 C20.83427288 84.18066183 20.83427288 84.18066183 19.5 86.50390625 C17.00485625 89.28095326 14.84978426 89.26671509 11.1875 89.5625 C5.87136565 89.70949892 2.62837894 88.48925479 -1.390625 84.98046875 C-4.85747846 81.60688129 -8.04805371 78.00955426 -11.23022461 74.36938477 C-14.27944776 71.05928232 -17.68442683 68.20424833 -21.125 65.3125 C-32.97463806 55.10761776 -43.26468157 44.76794534 -44.50390625 28.2734375 C-44.82307054 20.94797881 -44.68718317 14.36698608 -40.125 8.3125 C-39.70089844 7.70148438 -39.27679687 7.09046875 -38.83984375 6.4609375 C-28.92820471 -6.51530302 -13.58834695 -7.33770735 0 0 Z " fill="#030303" transform="translate(585.125,1221.6875)"/>
<path d="M0 0 C3.39047955 2.71238364 6.32939888 5.67503881 8.8125 9.25 C8.8125 9.91 8.8125 10.57 8.8125 11.25 C9.4725 11.25 10.1325 11.25 10.8125 11.25 C11.06 10.2290625 11.06 10.2290625 11.3125 9.1875 C14.43177532 3.07891917 20.52444361 -1.23477744 26.8125 -3.75 C29.0625 -4.4375 29.0625 -4.4375 31.8125 -4.75 C32.50988281 -4.83765625 33.20726562 -4.9253125 33.92578125 -5.015625 C41.64083743 -5.55703245 47.45853888 -3.00636735 53.8125 1.25 C60.27777322 6.88506157 64.23243135 12.6695927 65.12109375 21.21875 C65.60886418 33.63472469 61.85799774 43.84775728 53.8125 53.25 C47.54043484 60.01707312 40.92181855 66.48832924 33.890625 72.46484375 C31.02602335 74.92560118 28.23023587 77.45825475 25.4375 80 C24.65028564 80.70902466 24.65028564 80.70902466 23.84716797 81.43237305 C21.46672223 83.60415092 19.61131312 85.55178031 17.8125 88.25 C12.79633818 89.64522382 7.76524729 89.95465056 2.8125 88.25 C-2.44042208 84.72422064 -6.50466373 79.76154613 -10.62207031 75.01416016 C-12.44748057 72.95701504 -14.39644134 71.14486161 -16.5 69.375 C-17.09296875 68.87097656 -17.6859375 68.36695313 -18.296875 67.84765625 C-18.92078125 67.32042969 -19.5446875 66.79320312 -20.1875 66.25 C-31.01866186 56.8503452 -39.54415776 48.18002672 -44.1875 34.25 C-45.59132151 14.33578909 -45.59132151 14.33578909 -39.1875 6.25 C-28.02654215 -5.75891563 -14.22951435 -7.81228239 0 0 Z " fill="#030303" transform="translate(188.1875,1221.75)"/>
<path d="M0 0 C0.90748993 -0.0131424 1.81497986 -0.02628479 2.74996948 -0.03982544 C5.76202706 -0.07934116 8.77388495 -0.10262767 11.78613281 -0.12255859 C12.81387062 -0.13070965 13.84160843 -0.1388607 14.90048981 -0.14725876 C20.3408783 -0.1890029 25.78116559 -0.21759537 31.22167969 -0.23632812 C36.84245444 -0.25845476 42.4616449 -0.32724048 48.08185959 -0.40667152 C52.4021906 -0.45896145 56.72214313 -0.47570771 61.04276276 -0.48289108 C63.11448102 -0.49263558 65.18618167 -0.51590097 67.25759125 -0.55296707 C70.159982 -0.60167115 73.05826331 -0.59984241 75.9609375 -0.5859375 C76.81519318 -0.61155762 77.66944885 -0.63717773 78.54959106 -0.66357422 C82.20191171 -0.59987605 84.36269419 -0.46430868 87.09758759 2.08884048 C93.20398591 10.03430229 93.99550811 17.53456641 93.23925781 27.35400391 C92.60393666 30.56535378 91.60100948 33.38240816 90.23925781 36.35400391 C89.91054687 37.07974609 89.58183594 37.80548828 89.24316406 38.55322266 C82.29182501 52.33563539 68.63860751 63.15511931 56.98925781 72.97900391 C50.44088188 78.6062896 44.27047399 85.35041727 39.23925781 92.35400391 C35.48856921 91.10377437 34.63650342 89.59013515 32.23925781 86.47900391 C25.09696178 77.536617 16.90370144 69.81200602 8.23925781 62.35400391 C-3.87805771 51.8972703 -15.08424487 40.44506997 -17.06933594 23.76025391 C-17.44279379 15.34047687 -15.22552109 9.45600972 -10.76074219 2.35400391 C-7.70020462 -0.70653366 -4.11052191 0.02563406 0 0 Z " fill="#020202" transform="translate(1152.7607421875,-0.35400390625)"/>
<path d="M0 0 C0.91099457 -0.0087616 1.82198914 -0.01752319 2.7605896 -0.02655029 C5.77186717 -0.04855677 8.78167626 -0.03398696 11.79296875 -0.01708984 C13.8851754 -0.02045761 15.97738013 -0.0253099 18.06958008 -0.03158569 C22.4544538 -0.03895873 26.83881828 -0.02823733 31.22363281 -0.00488281 C36.84648675 0.02360485 42.4681475 0.00720324 48.09095764 -0.02274513 C52.41126509 -0.04080624 56.73128928 -0.03506545 61.05160522 -0.02210617 C63.12486919 -0.01876889 65.19815881 -0.0228705 67.27139282 -0.03450394 C70.16860136 -0.04719286 73.06387337 -0.02786285 75.9609375 0 C76.81924164 -0.01012115 77.67754578 -0.02024231 78.56185913 -0.03067017 C84.38978164 0.07325539 84.38978164 0.07325539 87.46508789 3.06021118 C88.21520142 4.34065811 88.21520142 4.34065811 88.98046875 5.64697266 C89.398125 6.31857422 89.81578125 6.99017578 90.24609375 7.68212891 C94.26842543 15.96621676 94.03072072 23.97767818 91.41796875 32.70947266 C86.15123134 46.75410574 76.17839044 56.3371737 65.0078125 65.90869141 C55.46108681 74.09422692 46.23429113 82.31577108 38.98046875 92.64697266 C35.56649836 91.22817977 33.98289145 89.64033123 31.85546875 86.64697266 C25.00491872 77.42937119 25.00491872 77.42937119 15.98046875 70.64697266 C15.98046875 69.98697266 15.98046875 69.32697266 15.98046875 68.64697266 C15.44808594 68.43041016 14.91570313 68.21384766 14.3671875 67.99072266 C11.10262734 66.15273789 8.50905131 63.69389569 5.79296875 61.14697266 C5.21998047 60.61088379 4.64699219 60.07479492 4.05664062 59.52246094 C-7.83334455 48.2815651 -16.73305327 37.58783012 -17.39453125 20.70947266 C-17.29306192 14.96920768 -16.04967422 10.51951738 -13.01953125 5.64697266 C-12.26941772 4.36652573 -12.26941772 4.36652573 -11.50415039 3.06021118 C-7.87877001 -0.46101565 -4.88217835 -0.05757083 0 0 Z " fill="#030303" transform="translate(756.01953125,-0.64697265625)"/>
<path d="M0 0 C0.90763596 -0.01489471 1.81527191 -0.02978943 2.75041199 -0.0451355 C5.75709829 -0.0889984 8.76330982 -0.10940465 11.77026367 -0.12597656 C13.85910558 -0.1432316 15.94794733 -0.1605048 18.03678894 -0.17779541 C22.41907974 -0.20932501 26.80120546 -0.22685285 31.18359375 -0.23730469 C36.79673427 -0.25375806 42.40769084 -0.32582816 48.02014637 -0.41122055 C52.33622077 -0.46712403 56.65177003 -0.48271741 60.96817589 -0.48731232 C63.03711575 -0.49638912 65.10604655 -0.5204672 67.17463112 -0.55986786 C83.39896917 -0.84682655 83.39896917 -0.84682655 87.72177124 2.48327637 C89.30056525 4.80541377 90.28590498 6.81563255 91.12573242 9.48339844 C91.62073242 10.47339844 91.62073242 10.47339844 92.12573242 11.48339844 C93.21316234 27.1113198 91.47973342 38.34749276 80.91870117 50.55371094 C74.06833395 57.90520046 66.48925248 64.62484099 58.87573242 71.17089844 C51.52453569 77.52477745 44.40842458 84.2861175 39.12573242 92.48339844 C35.02357144 90.94272507 32.8818959 87.99953137 30.25073242 84.67089844 C22.99495853 75.79121919 14.54079701 68.27061071 5.87573242 60.79589844 C-6.17692042 50.29508931 -15.68555981 39.86485154 -17.14770508 23.40527344 C-17.4180066 14.96354892 -16.05874434 8.46678318 -10.53065968 1.88326645 C-7.59313274 -0.5993281 -3.68314769 0.01438325 0 0 Z " fill="#020202" transform="translate(358.874267578125,-0.4833984375)"/>
<path d="M0 0 C4.43342672 2.85688489 7.45231236 6.39210092 10 11 C10.53701333 13.87005794 10.50762761 16.66289929 10.45410156 19.57568359 C10.45468567 20.41536682 10.45526978 21.25505005 10.45587158 22.12017822 C10.45309739 24.8800268 10.4220375 27.63877893 10.390625 30.3984375 C10.38316023 32.31799734 10.37746841 34.23756482 10.37347412 36.15713501 C10.35823638 41.19774592 10.31897054 46.23789232 10.2746582 51.27832031 C10.23366539 56.42636838 10.21545454 61.57449185 10.1953125 66.72265625 C10.15247454 76.81530772 10.08424569 86.90761516 10 97 C6.98595549 93.99773516 4.01235727 90.99431092 1.1875 87.8125 C0.58292969 87.13832031 -0.02164062 86.46414063 -0.64453125 85.76953125 C-2 84 -2 84 -2 82 C-2.66 82 -3.32 82 -4 82 C-4 81.34 -4 80.68 -4 80 C-4.57886963 79.74331543 -5.15773926 79.48663086 -5.75415039 79.22216797 C-8.21065963 77.88536122 -9.92004201 76.38235665 -11.93359375 74.4453125 C-12.66513672 73.74792969 -13.39667969 73.05054688 -14.15039062 72.33203125 C-15.28250977 71.23955078 -15.28250977 71.23955078 -16.4375 70.125 C-21.95320023 64.77635836 -21.95320023 64.77635836 -27.78515625 59.78515625 C-35.77966662 53.34160909 -42.74084933 43.27071917 -44 33 C-45.35067466 15.69768662 -45.35067466 15.69768662 -39.765625 8.01171875 C-29.02908192 -4.2212894 -14.80507336 -8.11635271 0 0 Z " fill="#030303" transform="translate(1578,976)"/>
<path d="M0 0 C7.40516157 4.14767306 12.39065177 9.63718792 15.625 17.5 C17.75896024 29.21037445 15.91582274 40.56890892 9.22753906 50.4140625 C3.52564626 57.83590469 -3.46308614 64.22688669 -10.375 70.5 C-11.10203125 71.16370605 -11.8290625 71.82741211 -12.578125 72.51123047 C-15.73226606 75.33900554 -18.49456709 77.73164047 -22.375 79.5 C-22.375 80.16 -22.375 80.82 -22.375 81.5 C-23.035 81.5 -23.695 81.5 -24.375 81.5 C-24.63667969 82.08910156 -24.89835937 82.67820312 -25.16796875 83.28515625 C-26.4392275 85.61785434 -27.77730531 87.10354368 -29.6875 88.9375 C-30.54794922 89.77087891 -30.54794922 89.77087891 -31.42578125 90.62109375 C-32.39064453 91.55115234 -32.39064453 91.55115234 -33.375 92.5 C-35.04306403 94.16526813 -36.7098725 95.83179558 -38.375 97.5 C-38.51425617 86.5557069 -38.62075098 75.61162589 -38.68587303 64.66662598 C-38.71713475 59.5839093 -38.75951314 54.50180047 -38.82763672 49.41943359 C-38.89301352 44.51105814 -38.92874483 39.60326591 -38.94426346 34.69448853 C-38.95531699 32.82539696 -38.97690256 30.95633595 -39.00938034 29.0874939 C-39.30466118 11.38622502 -39.30466118 11.38622502 -33.92744446 5.7698822 C-31.7489562 3.98790318 -29.66124868 2.41635005 -27.1875 1.0625 C-26.34832031 0.58941406 -25.50914063 0.11632812 -24.64453125 -0.37109375 C-16.77727782 -4.28440914 -7.83366515 -3.64517332 0 0 Z " fill="#030303" transform="translate(38.375,974.5)"/>
<path d="M0 0 C5.0372643 3.19380764 9.18764645 7.0627929 11.875 12.4375 C11.96812908 15.12279862 12.00078322 17.78194418 11.98852539 20.46728516 C11.98867142 21.29663071 11.98881744 22.12597626 11.9889679 22.98045349 C11.98826971 25.72918285 11.98048171 28.47784494 11.97265625 31.2265625 C11.97079174 33.12942467 11.96936799 35.03228732 11.96836853 36.93515015 C11.96454599 41.94931356 11.95471793 46.96344811 11.94366455 51.9776001 C11.93344479 57.09183359 11.9288697 62.20607174 11.92382812 67.3203125 C11.91309545 77.35938769 11.89602216 87.39844145 11.875 97.4375 C8.75556383 94.33929337 5.72323689 91.19927619 2.77832031 87.93408203 C-4.7627245 79.59170701 -12.8750171 72.10447739 -21.375 64.75 C-30.97822427 56.34219784 -40.60652391 46.51315396 -42.42651367 33.23828125 C-42.56074966 30.96346506 -42.58388468 28.71594021 -42.5625 26.4375 C-42.58248047 25.68210937 -42.60246094 24.92671875 -42.62304688 24.1484375 C-42.61716969 17.30739123 -40.43646263 12.40938052 -36.265625 7.046875 C-26.18776359 -2.86441019 -13.26314578 -6.76765168 0 0 Z " fill="#020202" transform="translate(1576.125,484.5625)"/>
<path d="M0 0 C3.05834675 2.39995266 5.56420667 4.97490183 8 8 C8.45632812 8.56074219 8.91265625 9.12148438 9.3828125 9.69921875 C14.07948581 17.00697966 12.99939947 27.94678643 11.375 36.16015625 C6.82304255 50.28341709 -4.9031247 60.69316498 -15.81640625 70.11328125 C-24.27702736 77.42362113 -31.85532425 84.86204885 -38.91796875 93.54296875 C-39.94857422 94.75919922 -39.94857422 94.75919922 -41 96 C-41.33 96 -41.66 96 -42 96 C-42.20909481 84.96006821 -42.36872869 73.92061203 -42.46630955 62.87909889 C-42.51315929 57.75120426 -42.57663817 52.62467022 -42.67895508 47.49755859 C-42.77718867 42.54371272 -42.8306494 37.59117013 -42.85389519 32.63642502 C-42.87044677 30.75212472 -42.90277019 28.86789092 -42.95157051 26.98414993 C-43.36399822 10.39497524 -43.36399822 10.39497524 -37.70678711 3.92724609 C-27.32329072 -5.66036015 -12.32517301 -7.61764166 0 0 Z " fill="#020202" transform="translate(42,486)"/>
<path d="M0 0 C0.83272934 0.00222061 1.66545868 0.00444122 2.52342224 0.00672913 C3.95458374 0.0069104 3.95458374 0.0069104 5.41465759 0.00709534 C6.92920532 0.01476929 6.92920532 0.01476929 8.47434998 0.02259827 C9.39727844 0.02360535 10.32020691 0.02461243 11.27110291 0.02565002 C14.73339574 0.03089958 18.19567092 0.04486071 21.65794373 0.05775452 C29.39231873 0.07837952 37.12669373 0.09900452 45.09544373 0.12025452 C45.09544373 30.48025452 45.09544373 60.84025452 45.09544373 92.12025452 C41.90187289 88.92668368 38.8791568 85.80533221 35.90794373 82.43275452 C28.66365875 74.36226183 21.1484471 67.06164878 12.69700623 60.26478577 C2.87220671 52.16596455 -7.58245937 41.1646931 -9.15992737 27.98695374 C-9.92590098 18.61969456 -10.0721099 10.60452401 -4.31471252 2.73744202 C-2.04003466 0.12880868 -2.04003466 0.12880868 0 0 Z " fill="#030303" transform="translate(1542.904556274414,-0.1202545166015625)"/>
<path d="M0 0 C11.446875 -0.2784375 11.446875 -0.2784375 23.125 -0.5625 C25.52410645 -0.64443604 27.92321289 -0.72637207 30.39501953 -0.81079102 C32.30757116 -0.8370888 34.22017332 -0.86001992 36.1328125 -0.87890625 C37.11693115 -0.92494995 38.1010498 -0.97099365 39.11499023 -1.01843262 C45.96663409 -1.02624818 45.96663409 -1.02624818 48.97161865 1.95803833 C54.56813034 10.15471762 54.81960502 18.38452207 54 28 C52.37603866 36.53068848 48.6996741 42.58786663 43 49 C42.08734375 50.10794922 42.08734375 50.10794922 41.15625 51.23828125 C36.81296443 56.39148278 32.03906579 60.54427186 26.7578125 64.71484375 C23.16888354 67.68867298 19.97626393 70.96362676 16.77734375 74.34765625 C15 76 15 76 13 76 C12.7628125 76.55429688 12.525625 77.10859375 12.28125 77.6796875 C10.69547758 80.55148267 8.71901908 82.71145652 6.5 85.125 C5.7059375 85.99382812 4.911875 86.86265625 4.09375 87.7578125 C2.75256247 89.19408422 1.38954317 90.61045683 0 92 C0 61.64 0 31.28 0 0 Z " fill="#020202" transform="translate(0,0)"/>
<path d="M0 0 C0.66 0.33 1.32 0.66 2 1 C1.45206787 1.87809326 1.45206787 1.87809326 0.89306641 2.77392578 C-0.23658684 4.9093383 -0.23658684 4.9093383 0.56396484 6.79248047 C1.13171631 7.69571045 1.13171631 7.69571045 1.7109375 8.6171875 C2.33609253 9.64102539 2.33609253 9.64102539 2.97387695 10.68554688 C3.43624756 11.40806641 3.89861816 12.13058594 4.375 12.875 C5.31466129 14.40311783 6.25345117 15.93177181 7.19140625 17.4609375 C7.90321045 18.6051416 7.90321045 18.6051416 8.62939453 19.77246094 C10.5987476 22.97309817 12.46263364 26.22928753 14.3125 29.5 C14.94929687 30.62148438 15.58609375 31.74296875 16.2421875 32.8984375 C17.11230469 34.43371094 17.11230469 34.43371094 18 36 C18.77730469 37.34964844 18.77730469 37.34964844 19.5703125 38.7265625 C20.02148438 39.51804687 20.47265625 40.30953125 20.9375 41.125 C21.31777344 41.78757812 21.69804688 42.45015625 22.08984375 43.1328125 C23.03456469 45.07090954 23.55567925 46.89532276 24 49 C24.66 49 25.32 49 26 49 C26.47308594 49.8971875 26.94617188 50.794375 27.43359375 51.71875 C32.15548246 60.64042454 37.0348108 69.46186632 42.00878906 78.24511719 C44.0270432 81.8183218 46.01248109 85.40964326 48 89 C44.04 93.95 44.04 93.95 40 99 C36.46370984 95.51459171 33.08261935 91.93342138 29.75 88.25 C23.38946143 81.28486784 17.0428209 74.55031028 9.625 68.6875 C1.25284029 61.96155147 -7.23476456 53.75164215 -12 44 C-12.31582031 43.36449219 -12.63164063 42.72898437 -12.95703125 42.07421875 C-16.32730559 33.90245767 -16.73479362 22.28107165 -13.5 14 C-10.38998554 8.19241028 -5.42999585 3.61999724 0 0 Z " fill="#2E2E2E" transform="translate(953,239)"/>
<path d="M0 0 C0.83243225 0.02580643 1.6648645 0.05161285 2.52252197 0.07820129 C3.81250092 0.0888134 3.81250092 0.0888134 5.12854004 0.09963989 C7.87013448 0.12758643 10.60967198 0.19032274 13.35064697 0.25398254 C15.21129452 0.2790652 17.07197414 0.30187843 18.93267822 0.32234192 C23.48945803 0.37741368 28.04470401 0.463686 32.60064697 0.56648254 C31.32028872 4.54837621 29.96436984 7.90360444 27.72564697 11.44148254 C25.08220851 15.71763299 22.78094375 20.03817385 20.60064697 24.56648254 C19.94064697 24.56648254 19.28064697 24.56648254 18.60064697 24.56648254 C18.2216626 25.84072083 18.2216626 25.84072083 17.83502197 27.14070129 C16.51839917 30.79474623 14.80672319 34.04274479 12.85064697 37.37898254 C12.49937744 37.98629211 12.14810791 38.59360168 11.78619385 39.21931458 C8.91745079 44.13288311 5.85898154 48.90113987 2.60064697 53.56648254 C-4.29927091 50.69151676 -8.60798631 43.09998322 -11.62200928 36.51570129 C-15.01269369 28.01343234 -16.29747626 18.24659648 -12.64935303 9.62898254 C-11.66497803 7.60163879 -11.66497803 7.60163879 -10.39935303 5.56648254 C-9.89726318 4.70957825 -9.39517334 3.85267395 -8.87786865 2.96980286 C-5.76110819 -0.05239868 -4.19394078 -0.00202927 0 0 Z " fill="#030303" transform="translate(753.3993530273438,-0.5664825439453125)"/>
<path d="M0 0 C4.29 0 8.58 0 13 0 C12.34 1.98 11.68 3.96 11 6 C11.66 6 12.32 6 13 6 C13.28875 6.763125 13.5775 7.52625 13.875 8.3125 C14.96269013 11.15029308 14.96269013 11.15029308 17 14 C16.89359809 18.68168424 15.25823401 21.24720756 12.453125 24.890625 C10.11255374 28.28822844 8.46591709 32.01171094 6.72265625 35.7421875 C5.32977318 38.37634732 3.8817274 40.7098836 2.20703125 43.16015625 C-1.36770168 48.42736837 -4.36976122 53.95643111 -7.375 59.5625 C-7.92027344 60.57119141 -8.46554687 61.57988281 -9.02734375 62.61914062 C-10.3554767 65.07735161 -11.67960235 67.53762815 -13 70 C-13.495 69.01 -13.495 69.01 -14 68 C-15.3279932 67.32275832 -16.66205801 66.65736858 -18 66 C-19.64746094 64.67138672 -19.64746094 64.67138672 -21.234375 63.1796875 C-21.80800781 62.64472656 -22.38164063 62.10976563 -22.97265625 61.55859375 C-23.55917969 61.00300781 -24.14570312 60.44742188 -24.75 59.875 C-25.35199219 59.31167969 -25.95398438 58.74835937 -26.57421875 58.16796875 C-28.05334151 56.78275854 -29.52719641 55.3919271 -31 54 C-23.42286459 40.65347214 -23.42286459 40.65347214 -19.6875 34.5 C-17.6090567 31.06802005 -15.71729801 27.6254069 -14 24 C-13.34 24 -12.68 24 -12 24 C-11.690625 22.5459375 -11.690625 22.5459375 -11.375 21.0625 C-10.20199993 16.90672831 -7.98990309 13.79625881 -5.53125 10.2890625 C-3.33425037 7.00477223 -1.68723268 3.56914605 0 0 Z " fill="#2E2E2E" transform="translate(786,0)"/>
<path d="M0 0 C1.32 0 2.64 0 4 0 C3.731875 0.969375 3.46375 1.93875 3.1875 2.9375 C2.48909837 8.28133067 5.24168584 11.61560544 8 16 C9.66079624 18.78287799 11.29758489 21.57978043 12.9375 24.375 C13.37441162 25.11459961 13.81132324 25.85419922 14.26147461 26.61621094 C17.19507188 31.5887818 20.02637186 36.6039849 22.75 41.6953125 C23.90835423 43.83102811 25.12900002 45.91468059 26.375 48 C28 51 28 51 28 54 C28.66 54 29.32 54 30 54 C30.66 55.98 31.32 57.96 32 60 C29.40323752 62.48702127 26.79638805 64.96320635 24.1875 67.4375 C23.44951172 68.14455078 22.71152344 68.85160156 21.95117188 69.58007812 C20.88286133 70.59038086 20.88286133 70.59038086 19.79296875 71.62109375 C18.81106567 72.55586548 18.81106567 72.55586548 17.80932617 73.50952148 C16 75 16 75 13 76 C12.31206923 77.32248761 11.64990252 78.65841551 11 80 C9.54299338 81.74514598 8.03868733 83.45142775 6.5 85.125 C5.7059375 85.99382812 4.911875 86.86265625 4.09375 87.7578125 C2.75256247 89.19408422 1.38954317 90.61045683 0 92 C0 61.64 0 31.28 0 0 Z " fill="#313131" transform="translate(0,0)"/>
<path d="M0 0 C4.6263658 -0.1237709 9.25176461 -0.21441516 13.87939453 -0.2746582 C15.45280751 -0.29977448 17.02610412 -0.33387472 18.59912109 -0.37719727 C20.86324772 -0.43798399 23.12583022 -0.46623582 25.390625 -0.48828125 C26.44240936 -0.52699089 26.44240936 -0.52699089 27.51544189 -0.56648254 C29.51660156 -0.56762695 29.51660156 -0.56762695 33 0 C35.39648438 2.40332031 35.39648438 2.40332031 37 5 C37.41765625 5.67160156 37.8353125 6.34320313 38.265625 7.03515625 C42.28795668 15.31924411 42.05025197 23.33070552 39.4375 32.0625 C37.19216764 38.13291642 34.20521342 44.04350715 30 49 C29.01 49 28.02 49 27 49 C26.38253906 47.87464844 25.76507812 46.74929687 25.12890625 45.58984375 C20.93003561 37.96775385 16.69597383 30.38163464 12.1875 22.9375 C7.64051564 15.42539027 3.44154746 8.08617081 0 0 Z " fill="#2F2F2F" transform="translate(808,0)"/>
<path d="M0 0 C0.66 0 1.32 0 2 0 C2.56847656 1.01578125 3.13695312 2.0315625 3.72265625 3.078125 C7.43065909 9.69431794 11.14875314 16.30464153 14.9375 22.875 C15.75541016 24.29425781 15.75541016 24.29425781 16.58984375 25.7421875 C17.93599951 28.08610792 17.93599951 28.08610792 20 30 C18.21079529 31.6485816 16.4187995 33.29393121 14.625 34.9375 C13.86316406 35.64036133 13.86316406 35.64036133 13.0859375 36.35742188 C8.53101551 40.52277817 6.61658748 41.12441995 0.4609375 41.09765625 C-0.84101562 41.09443359 -2.14296875 41.09121094 -3.484375 41.08789062 C-4.86458399 41.07953466 -6.24479232 41.07106971 -7.625 41.0625 C-9.01301926 41.05748501 -10.40104022 41.0529221 -11.7890625 41.04882812 C-15.19275132 41.03700976 -18.59635439 41.02053434 -22 41 C-15.93765434 28.3807971 -9.14625877 16.22470233 -2.17993164 4.08447266 C-1.41970152 2.74144663 -0.69016936 1.38033873 0 0 Z " fill="#2E2E2E" transform="translate(809,28)"/>
<path d="M0 0 C0.66 0 1.32 0 2 0 C3.51418335 2.24401973 4.89703743 4.47334689 6.25 6.8125 C6.64968994 7.49231934 7.04937988 8.17213867 7.46118164 8.87255859 C16.34688274 24.06487489 16.34688274 24.06487489 19 31 C16.57390754 33.34544549 14.1323556 35.67413186 11.6875 38 C10.99720703 38.66773438 10.30691406 39.33546875 9.59570312 40.0234375 C8.92861328 40.65507813 8.26152344 41.28671875 7.57421875 41.9375 C6.96151123 42.52402344 6.34880371 43.11054687 5.7175293 43.71484375 C4 45 4 45 1 45 C0.46890625 43.98679687 -0.0621875 42.97359375 -0.609375 41.9296875 C-1.32274694 40.57803541 -2.03629817 39.22647793 -2.75 37.875 C-3.09804688 37.20984375 -3.44609375 36.5446875 -3.8046875 35.859375 C-5.49551438 32.6655909 -7.12549686 29.83533801 -9.328125 26.9453125 C-11 24 -11 24 -11.05859375 20.68359375 C-9.71069634 15.99330868 -7.59529214 12.20803777 -5.0625 8.0625 C-4.60681641 7.28326172 -4.15113281 6.50402344 -3.68164062 5.70117188 C-1.16121903 1.49062862 -1.16121903 1.49062862 0 0 Z " fill="#2E2E2E" transform="translate(809,518)"/>
<path d="M0 0 C0.66 0 1.32 0 2 0 C6.38894066 5.88074808 9.87610705 12.37734694 13 19 C10.36 22.3 7.72 25.6 5 29 C1.42416475 25.47580136 -2.00543828 21.84733603 -5.375 18.125 C-9.46989352 13.62609177 -13.6489206 9.25438875 -18 5 C-16.98046875 3.015625 -16.98046875 3.015625 -15 1 C-12.28770497 0.70357431 -10.00260268 0.61938811 -7.3125 0.75 C-6.2596582 0.77707031 -6.2596582 0.77707031 -5.18554688 0.8046875 C-3.45644564 0.85173787 -1.72804795 0.92348127 0 1 C0 0.67 0 0.34 0 0 Z " fill="#303030" transform="translate(988,309)"/>
<path d="M0 0 C5.28484482 5.28484482 8.38341805 11.02244813 11 18 C12.49743119 19.49743119 13.98824239 19.33202693 16.0625 19.5625 C17.361875 19.706875 18.66125 19.85125 20 20 C18.71480435 22.86697492 17.42870746 24.97607712 15 27 C14.34 27 13.68 27 13 27 C12.7628125 27.55429688 12.525625 28.10859375 12.28125 28.6796875 C10.69547758 31.55148267 8.71901908 33.71145652 6.5 36.125 C5.7059375 36.99382812 4.911875 37.86265625 4.09375 38.7578125 C2.75256247 40.19408422 1.38954317 41.61045683 0 43 C0 28.81 0 14.62 0 0 Z " fill="#060606" transform="translate(0,49)"/>
<path d="M0 0 C0.66 0 1.32 0 2 0 C5.63 6.6 9.26 13.2 13 20 C11.02 22.64 9.04 25.28 7 28 C6.34 28.99 5.68 29.98 5 31 C4.34 31 3.68 31 3 31 C1.64626036 29.49096123 0.36556599 27.91587302 -0.875 26.3125 C-1.89207031 25.00732422 -1.89207031 25.00732422 -2.9296875 23.67578125 C-3.95449219 22.35126953 -3.95449219 22.35126953 -5 21 C-6.33052419 19.3310899 -7.66301411 17.66373805 -9 16 C-6.77931477 10.20154411 -3.93780715 4.83725057 0 0 Z " fill="#2F2F2F" transform="translate(790,552)"/>
<path d="M0 0 C2.29988479 2.94839381 4.23515822 5.98449226 6.109375 9.21875 C6.69976563 10.23453125 7.29015625 11.2503125 7.8984375 12.296875 C8.50945313 13.35390625 9.12046875 14.4109375 9.75 15.5 C10.34554687 16.52609375 10.94109375 17.5521875 11.5546875 18.609375 C12.75675516 20.68046993 13.95792884 22.75208398 15.15820312 24.82421875 C18.09535972 29.88871145 21.04752532 34.94442361 24 40 C23.01 40.495 23.01 40.495 22 41 C13.4564408 34.13788596 6.23607207 26.21116321 2 16 C1.5875 15.05125 1.175 14.1025 0.75 13.125 C-0.30336539 8.73597753 -0.15975946 4.49101582 0 0 Z " fill="#090909" transform="translate(938,264)"/>
<path d="M0 0 C0.33 0 0.66 0 1 0 C1 10.56 1 21.12 1 32 C-2.07697975 28.92302025 -4.98515424 25.95835098 -7.8125 22.6875 C-8.41707031 21.99011719 -9.02164062 21.29273437 -9.64453125 20.57421875 C-10.09183594 20.05472656 -10.53914063 19.53523438 -11 19 C-10.54109375 18.29875 -10.0821875 17.5975 -9.609375 16.875 C-6.05198951 11.37450479 -2.79479035 5.92495554 0 0 Z " fill="#2E2E2E" transform="translate(1587,60)"/>
<path d="M0 0 C3.25 -0.3125 3.25 -0.3125 7 0 C11.18859766 3.95589779 13.83177307 8.90501393 14.29296875 14.6484375 C14.25816406 15.87820313 14.22335937 17.10796875 14.1875 18.375 C14.16042969 19.62023437 14.13335938 20.86546875 14.10546875 22.1484375 C14.07066406 23.08945312 14.03585937 24.03046875 14 25 C11.54395197 22.0298954 9.38104103 19.14796593 7.5625 15.75 C5.40420091 11.74843306 3.1789124 7.79213332 0.91796875 3.84765625 C0 2 0 2 0 0 Z " fill="#070707" transform="translate(834,0)"/>
<path d="M0 0 C5.94 0 11.88 0 18 0 C12.10714286 9.375 12.10714286 9.375 8 11 C6.66375099 9.35653302 5.33107149 7.71016314 4 6.0625 C3.2575 5.14597656 2.515 4.22945313 1.75 3.28515625 C0 1 0 1 0 0 Z " fill="#323232" transform="translate(785,81)"/>
<path d="M0 0 C4.5 5.625 4.5 5.625 6.25 9.3125 C6.58515625 10.00988281 6.9203125 10.70726562 7.265625 11.42578125 C7.50796875 11.94527344 7.7503125 12.46476563 8 13 C6.85760183 14.33627775 5.71098945 15.66895388 4.5625 17 C3.60537109 18.11375 3.60537109 18.11375 2.62890625 19.25 C2.09136719 19.8275 1.55382812 20.405 1 21 C0.67 21 0.34 21 0 21 C0 14.07 0 7.14 0 0 Z " fill="#313131" transform="translate(0,561)"/>
<path d="M0 0 C0.99 0 1.98 0 3 0 C5.97 5.28 8.94 10.56 12 16 C11.34 16.33 10.68 16.66 10 17 C5.57905197 13.27653164 1.42166518 9.70478962 -2 5 C-1.34 3.35 -0.68 1.7 0 0 Z " fill="#0F0F0F" transform="translate(950,288)"/>
<path d="M0 0 C0.66 0.33 1.32 0.66 2 1 C-0.33333333 3.33333333 -2.66666667 5.66666667 -5 8 C-5.50144531 8.51175781 -6.00289062 9.02351562 -6.51953125 9.55078125 C-8.07810133 11.07645276 -9.70280536 12.47519906 -11.375 13.875 C-13.58461657 15.74968522 -15.63300489 17.63300489 -17.6875 19.6875 C-19.69413609 21.69413609 -21.68472871 23.37073502 -24 25 C-22.38307931 20.91873633 -19.45727938 18.19393123 -16.375 15.1875 C-15.5718335 14.39400146 -15.5718335 14.39400146 -14.75244141 13.58447266 C-11.1223823 10.02411766 -7.40223453 6.59430017 -3.5234375 3.3046875 C-2.30041699 2.25728019 -1.13860468 1.13860468 0 0 Z " fill="#DFDFDF" transform="translate(626,796)"/>
<path d="M0 0 C2.97 0 5.94 0 9 0 C8.06558465 1.27310312 7.12732889 2.543388 6.1875 3.8125 C5.66542969 4.52019531 5.14335938 5.22789063 4.60546875 5.95703125 C3 8 3 8 0 11 C0 7.37 0 3.74 0 0 Z " fill="#323232" transform="translate(0,81)"/>
<path d="M0 0 C3.3 0 6.6 0 10 0 C8.68 2.31 7.36 4.62 6 7 C5.34 7 4.68 7 4 7 C2.02 3.535 2.02 3.535 0 0 Z " fill="#E8E8E8" transform="translate(1186,0)"/>
<path d="M0 0 C3.3 0 6.6 0 10 0 C8.68 2.31 7.36 4.62 6 7 C5.34 7 4.68 7 4 7 C2.02 3.535 2.02 3.535 0 0 Z " fill="#ECECEC" transform="translate(789,0)"/>
<path d="M0 0 C3.3 0 6.6 0 10 0 C7.525 3.465 7.525 3.465 5 7 C1.125 2.25 1.125 2.25 0 0 Z " fill="#EBEBEB" transform="translate(392,0)"/>
<path d="M0 0 C0.33 0.99 0.66 1.98 1 3 C-1.85276137 5.93200474 -4.65079784 8.64315404 -8 11 C-8.66 10.67 -9.32 10.34 -10 10 C-6.7 6.7 -3.4 3.4 0 0 Z " fill="#EAEAEA" transform="translate(215,809)"/>
<path d="M0 0 C0 3.90838866 -1.50567876 5.11594107 -4 8 C-5.32 7.67 -6.64 7.34 -8 7 C-5.36 4.69 -2.72 2.38 0 0 Z " fill="#E8E7E8" transform="translate(1022,307)"/>
<path d="M0 0 C0.33 0 0.66 0 1 0 C1.33 5.28 1.66 10.56 2 16 C1.01 16.33 0.02 16.66 -1 17 C-0.67 11.39 -0.34 5.78 0 0 Z " fill="#B8B8B8" transform="translate(451,15)"/>
<path d="M0 0 C0.66 0.33 1.32 0.66 2 1 C0.41641358 4.16717283 -0.45263699 5.73268318 -3.6875 7.3125 C-4.450625 7.539375 -5.21375 7.76625 -6 8 C-4.02 5.36 -2.04 2.72 0 0 Z " fill="#E5E5E5" transform="translate(445,1023)"/>
<path d="M0 0 C0.33 1.32 0.66 2.64 1 4 C-1.97 6.475 -1.97 6.475 -5 9 C-5 4.61031544 -2.87194899 3.23094261 0 0 Z " fill="#EBEBEB" transform="translate(244,781)"/>
<path d="M0 0 C0.66 0.33 1.32 0.66 2 1 C1.67 1.99 1.34 2.98 1 4 C-1.0625 4.6875 -1.0625 4.6875 -3 5 C-3 5.66 -3 6.32 -3 7 C-3.99 7.33 -4.98 7.66 -6 8 C-4.55746343 4.63408134 -2.66735273 2.48952921 0 0 Z " fill="#111111" transform="translate(604,732)"/>
<path d="M0 0 C1.65 0 3.3 0 5 0 C5 0.99 5 1.98 5 3 C3.35 3.66 1.7 4.32 0 5 C0 3.35 0 1.7 0 0 Z " fill="#ECECEC" transform="translate(948,728)"/>
<path d="M0 0 C-0.33 0.66 -0.66 1.32 -1 2 C-1.66 2 -2.32 2 -3 2 C-4.63676257 3.9600281 -4.63676257 3.9600281 -6 6 C-6.99 5.67 -7.98 5.34 -9 5 C-4.5 0 -4.5 0 0 0 Z " fill="#DFDFDF" transform="translate(410,1062)"/>
<path d="M0 0 C0.66 0.33 1.32 0.66 2 1 C0.35 2.98 -1.3 4.96 -3 7 C-3.99 6.67 -4.98 6.34 -6 6 C-4.02 4.02 -2.04 2.04 0 0 Z " fill="#131313" transform="translate(1148,977)"/>
<path d="M0 0 C0.66 0.99 1.32 1.98 2 3 C0.35 4.32 -1.3 5.64 -3 7 C-3 5.68 -3 4.36 -3 3 C-2.34 3 -1.68 3 -1 3 C-0.67 2.01 -0.34 1.02 0 0 Z " fill="#1F1F1F" transform="translate(1006,318)"/>
<path d="M0 0 C0 3 0 3 -2 6 C-2.66 6 -3.32 6 -4 6 C-4 6.66 -4 7.32 -4 8 C-4.99 7.67 -5.98 7.34 -7 7 C-4.69 4.69 -2.38 2.38 0 0 Z " fill="#E3E2E3" transform="translate(1209,72)"/>
<path d="M0 0 C1.98 0 3.96 0 6 0 C5.67 0.99 5.34 1.98 5 3 C5 3.99 5 4.98 5 6 C3.31237149 4.3545622 1.6459651 2.68711423 0 1 C0 0.67 0 0.34 0 0 Z " fill="#EAEAEA" transform="translate(1238,0)"/>
</svg>
